<svg xmlns="http://www.w3.org/2000/svg" xmlns:xlink="http://www.w3.org/1999/xlink" width="237" height="227" viewBox="0 0 237 227"><defs><filter id="a" x="0" y="0" width="237" height="227" filterUnits="userSpaceOnUse"><feOffset dy="3" input="SourceAlpha"/><feGaussianBlur stdDeviation="25" result="b"/><feFlood flood-opacity="0.161"/><feComposite operator="in" in2="b"/><feComposite in="SourceGraphic"/></filter></defs><g transform="translate(75 72)"><g transform="matrix(1, 0, 0, 1, -75, -72)" filter="url(#a)"><rect width="87" height="77" transform="translate(75 72)" fill="#63a5a7"/></g><path d="M1.932,33.461a1.791,1.791,0,0,0,1.177-.436L21.6,18.155a1.924,1.924,0,0,0,0-2.965L3.2.406A1.846,1.846,0,0,0,1.8.013a1.874,1.874,0,0,0-1.286.7A1.8,1.8,0,0,0,.1,2.107,1.8,1.8,0,0,0,.8,3.371l16.571,13.3L.711,30.06a1.8,1.8,0,0,0-.7,1.265,1.846,1.846,0,0,0,.392,1.4A1.9,1.9,0,0,0,1.932,33.461Zm0,0" transform="translate(33.154 22.098)" fill="#fff"/></g></svg>