<svg xmlns="http://www.w3.org/2000/svg" xmlns:xlink="http://www.w3.org/1999/xlink" width="203.019" height="110.121" viewBox="0 0 203.019 110.121"><defs><clipPath id="a"><path d="M53.016,301.391q0,1.008.029,1.762t.071,1.3q.042.546.107.914a6.277,6.277,0,0,0,.136.617v.047H50.511v-.047a6.279,6.279,0,0,0,.136-.617q.065-.367.107-.914t.071-1.294q.029-.748.029-1.769v-7.727q0-1.008-.029-1.763t-.071-1.3q-.042-.546-.107-.92a6.218,6.218,0,0,0-.136-.624v-.047l.5.047q.225.024.5.03c.186,0,.378.006.576.006a9.312,9.312,0,0,0,1.252-.113,14.77,14.77,0,0,1,2.012-.113,6.9,6.9,0,0,1,2.107.309,4.927,4.927,0,0,1,1.68.9,4.117,4.117,0,0,1,1.11,1.454,4.608,4.608,0,0,1,.4,1.953,5.475,5.475,0,0,1-.22,1.585,4.891,4.891,0,0,1-.617,1.323,4.823,4.823,0,0,1-.956,1.05,5.5,5.5,0,0,1-1.246.765l4.166,5.852q.309.44.576.76a6.538,6.538,0,0,0,.511.552,3.388,3.388,0,0,0,.469.38,2.122,2.122,0,0,0,.463.231v.047h-3.43a2.107,2.107,0,0,0-.231-.6,6.476,6.476,0,0,0-.457-.742l-4.2-5.922c-.182.016-.364.029-.546.041s-.368.018-.558.018q-.332,0-.671-.024a6.708,6.708,0,0,1-.682-.083Zm0-3.6a5.032,5.032,0,0,0,.653.1q.332.03.641.029a4.73,4.73,0,0,0,1.626-.267,3.192,3.192,0,0,0,1.252-.813,3.76,3.76,0,0,0,.8-1.359,5.776,5.776,0,0,0,.285-1.9,6.02,6.02,0,0,0-.2-1.615,3.46,3.46,0,0,0-.6-1.228,2.684,2.684,0,0,0-1-.784,3.347,3.347,0,0,0-1.412-.279,8.143,8.143,0,0,0-1.305.083,4.174,4.174,0,0,0-.736.178Zm36.271,8.237v-.047a.7.7,0,0,0,.036-.178c.008-.079.012-.15.012-.214a3.718,3.718,0,0,0-.1-.813,6.727,6.727,0,0,0-.386-1.11l-1.436-3.229q-.665-.023-1.769-.024h-4.2q-.872,0-1.573.024l-1.365,3.134q-.178.439-.38.961a2.909,2.909,0,0,0-.2,1.056,1.12,1.12,0,0,0,.024.255.459.459,0,0,0,.047.136v.047H75.578v-.047a4.259,4.259,0,0,0,.534-.8q.321-.576.7-1.442l6.8-15.086h.95l6.445,14.5q.225.51.469.991t.457.86q.214.38.38.641c.111.174.186.285.226.332v.047ZM81.6,299.4q.689,0,1.413-.006l1.418-.012,1.336-.012q.641-.006,1.163-.018l-3.335-7.537L80.314,299.4Zm25.044-10.433.51.024q.2.012.416.018c.142,0,.257.006.344.006.15,0,.4-.007.754-.024s.754-.032,1.2-.047l1.406-.047q.73-.024,1.371-.024a12.311,12.311,0,0,1,3.276.427,7.226,7.226,0,0,1,2.73,1.4,6.755,6.755,0,0,1,1.863,2.552,9.711,9.711,0,0,1,.689,3.881,11.209,11.209,0,0,1-.362,2.967,8.314,8.314,0,0,1-1.015,2.326,7.1,7.1,0,0,1-1.561,1.727,8.623,8.623,0,0,1-2.006,1.181,10.636,10.636,0,0,1-2.344.677,15.257,15.257,0,0,1-2.575.213q-.475,0-1.145-.03t-1.347-.065l-1.276-.065q-.6-.03-.932-.03v-.047q.071-.249.136-.617t.113-.914q.047-.546.071-1.3t.024-1.762v-7.727q0-1.008-.024-1.775t-.071-1.317q-.048-.552-.113-.932a6.228,6.228,0,0,0-.136-.629Zm2.6,1.068q-.024,1.329-.047,2.576-.012.534-.018,1.092t-.012,1.1q-.006.54-.012,1.033t-.006.872q0,.8.012,1.923t.03,2.314q.018,1.187.053,2.279t.083,1.816c.111.016.259.034.445.054s.382.036.587.047.407.022.605.029.364.012.5.012a13.351,13.351,0,0,0,1.7-.112,7.4,7.4,0,0,0,1.685-.422,6.2,6.2,0,0,0,1.531-.849,5.193,5.193,0,0,0,1.258-1.395,7.182,7.182,0,0,0,.849-2.059,11.552,11.552,0,0,0,.308-2.843,10.938,10.938,0,0,0-.439-3.234,6.529,6.529,0,0,0-1.288-2.392,5.44,5.44,0,0,0-2.1-1.478,7.664,7.664,0,0,0-2.878-.5q-.321,0-.724.018l-.8.036q-.4.018-.748.047C109.581,290.01,109.389,290.024,109.239,290.032Zm27.5,15.952a5.482,5.482,0,0,0,.131-.617q.059-.367.107-.914t.071-1.3q.024-.754.024-1.762v-7.727q0-1.008-.024-1.763t-.071-1.305q-.048-.552-.107-.92a5.508,5.508,0,0,0-.131-.618v-.047h2.837v.047a6.318,6.318,0,0,0-.136.618q-.066.368-.107.92t-.071,1.305q-.03.754-.029,1.763v7.727q0,1.008.029,1.762t.071,1.3q.042.546.107.914a6.284,6.284,0,0,0,.136.617v.047h-2.837Zm30.753.047v-.047a.7.7,0,0,0,.036-.178c.008-.079.012-.15.012-.214a3.7,3.7,0,0,0-.1-.813,6.723,6.723,0,0,0-.386-1.11l-1.436-3.229q-.665-.023-1.769-.024h-4.2q-.872,0-1.573.024l-1.365,3.134q-.179.439-.38.961a2.909,2.909,0,0,0-.2,1.056,1.143,1.143,0,0,0,.023.255.458.458,0,0,0,.048.136v.047h-2.421v-.047a4.263,4.263,0,0,0,.534-.8q.321-.576.7-1.442l6.8-15.086h.949l6.445,14.5q.226.51.469.991t.457.86q.214.38.38.641a3.968,3.968,0,0,0,.226.332v.047ZM159.8,299.4q.689,0,1.413-.006l1.418-.012,1.336-.012q.641-.006,1.163-.018l-3.335-7.537-3.276,7.584Zm25.708-10.386,12.225,13.009v-8.356q0-1.008-.024-1.763t-.071-1.305q-.047-.552-.112-.92t-.137-.618v-.047H199.5v.047a5.508,5.508,0,0,0-.131.618q-.059.368-.107.92t-.071,1.305q-.024.754-.024,1.763v12.605h-.415l-12.225-13v8.119q0,1.008.023,1.762t.071,1.3q.047.546.107.914a5.489,5.489,0,0,0,.131.617v.047h-2.113v-.047q.071-.249.136-.617t.113-.914q.048-.546.071-1.3t.024-1.762v-7.727q0-1.008-.024-1.763T185,290.6q-.048-.552-.113-.92t-.136-.618v-.047Zm43.7,2.611-.107.048a7.019,7.019,0,0,0-2.225-1.365,8.247,8.247,0,0,0-5.6-.042,6,6,0,0,0-2.142,1.359,6.142,6.142,0,0,0-1.395,2.184,8.146,8.146,0,0,0-.5,2.944,11.667,11.667,0,0,0,.475,3.389,7.842,7.842,0,0,0,1.412,2.724,6.563,6.563,0,0,0,2.344,1.81,7.662,7.662,0,0,0,3.282.659,6.545,6.545,0,0,0,1.353-.142,6.4,6.4,0,0,0,1.3-.422,6.648,6.648,0,0,0,1.175-.676,6.041,6.041,0,0,0,1-.908l.131.083-.949,2.421a10.25,10.25,0,0,1-1.964.528,12.794,12.794,0,0,1-2.166.184,12.145,12.145,0,0,1-4.017-.635,9.231,9.231,0,0,1-3.134-1.8,8.111,8.111,0,0,1-2.041-2.795,8.778,8.778,0,0,1-.73-3.626,8.573,8.573,0,0,1,.291-2.22,8.773,8.773,0,0,1,.849-2.077,8.528,8.528,0,0,1,1.376-1.81,8.839,8.839,0,0,1,1.869-1.43,9.585,9.585,0,0,1,2.314-.944,10.55,10.55,0,0,1,2.736-.338,12.531,12.531,0,0,1,4.249.7ZM247.483,289q1.466-.012,2.688-.029t2.089-.054a9.448,9.448,0,0,0,1.175-.095l-.581,1.578a8.8,8.8,0,0,0-.914-.19q-.452-.071-1.1-.136t-1.489-.065q-.285,0-.683.018t-.766.041l-.866.047V296.6q1.222-.012,2.207-.071t1.674-.119q.807-.071,1.424-.166l-.368,1.721q-.819-.107-1.674-.2-.736-.083-1.6-.148t-1.661-.065v7.442a25.727,25.727,0,0,0,2.575-.118q1.175-.119,2.053-.273a19.012,19.012,0,0,0,1.864-.391l-.344,1.923q-.143-.012-.427-.024l-.635-.023q-.35-.012-.736-.018l-.729-.012-.612-.012c-.178,0-.307-.006-.385-.006h-5.128v-.047q.071-.249.136-.617t.113-.914q.047-.546.071-1.3t.024-1.762v-7.727q0-1.008-.024-1.763t-.071-1.305q-.047-.552-.113-.92t-.136-.618v-.047Q246.017,289.011,247.483,289Z" transform="translate(-50.511 -288.655)" fill="#474849"/></clipPath></defs><g transform="translate(-55.705 -20.921)"><g transform="translate(5.194 -166.354)"><g transform="translate(109.419 187.275)"><path d="M318.866,287.634a26.48,26.48,0,0,1-7.017,7.473q-3.509,2.288-9.3,2.288a14.746,14.746,0,0,1-10.3-3.661q-4.043-3.661-6.024-12.812l-3.356-15.252a102.233,102.233,0,0,0-3.431-12.2,15.727,15.727,0,0,0-4.8-6.863q-3.2-2.591-9-2.593H251.146v35.08a27.536,27.536,0,0,0,.915,8.389,5.477,5.477,0,0,0,3.431,3.507,30.319,30.319,0,0,0,8.007,1.22v3.051q-7.017-.458-19.37-.458-13.119,0-19.523.458V292.21a30.326,30.326,0,0,0,8.008-1.22,5.482,5.482,0,0,0,3.431-3.507,27.539,27.539,0,0,0,.915-8.389V203.442a27.559,27.559,0,0,0-.915-8.389,5.489,5.489,0,0,0-3.431-3.507,30.447,30.447,0,0,0-8.008-1.22v-3.051q6.407.458,18.608.457l16.473-.152q2.895-.151,6.558-.153,17.691,0,27.225,7.4T303,213.966a28.056,28.056,0,0,1-2.821,11.973,28.507,28.507,0,0,1-9.456,10.829q-6.635,4.8-17.312,6.482l1.83.3q10.066,1.68,14.643,6.1t6.71,14.032l3.813,15.558q1.522,7.017,3.2,9.761a5.142,5.142,0,0,0,4.576,2.745,6.838,6.838,0,0,0,4.347-1.373,23.967,23.967,0,0,0,4.042-4.422ZM255.34,191.394a6.027,6.027,0,0,0-3.279,3.812,27.763,27.763,0,0,0-.915,8.236v37.521h10.219q15.1,0,20.742-6.711t5.644-18.608q0-12.5-5.949-18.913t-19.37-6.406A18.048,18.048,0,0,0,255.34,191.394Z" transform="translate(-224.607 -187.275)" fill="#dfe3e4"/></g><g transform="translate(50.511 221.578)"><g transform="translate(0 0)"><path d="M53.016,301.391q0,1.008.029,1.762t.071,1.3q.042.546.107.914a6.277,6.277,0,0,0,.136.617v.047H50.511v-.047a6.279,6.279,0,0,0,.136-.617q.065-.367.107-.914t.071-1.294q.029-.748.029-1.769v-7.727q0-1.008-.029-1.763t-.071-1.3q-.042-.546-.107-.92a6.218,6.218,0,0,0-.136-.624v-.047l.5.047q.225.024.5.03c.186,0,.378.006.576.006a9.312,9.312,0,0,0,1.252-.113,14.77,14.77,0,0,1,2.012-.113,6.9,6.9,0,0,1,2.107.309,4.927,4.927,0,0,1,1.68.9,4.117,4.117,0,0,1,1.11,1.454,4.608,4.608,0,0,1,.4,1.953,5.475,5.475,0,0,1-.22,1.585,4.891,4.891,0,0,1-.617,1.323,4.823,4.823,0,0,1-.956,1.05,5.5,5.5,0,0,1-1.246.765l4.166,5.852q.309.44.576.76a6.538,6.538,0,0,0,.511.552,3.388,3.388,0,0,0,.469.38,2.122,2.122,0,0,0,.463.231v.047h-3.43a2.107,2.107,0,0,0-.231-.6,6.476,6.476,0,0,0-.457-.742l-4.2-5.922c-.182.016-.364.029-.546.041s-.368.018-.558.018q-.332,0-.671-.024a6.708,6.708,0,0,1-.682-.083Zm0-3.6a5.032,5.032,0,0,0,.653.1q.332.03.641.029a4.73,4.73,0,0,0,1.626-.267,3.192,3.192,0,0,0,1.252-.813,3.76,3.76,0,0,0,.8-1.359,5.776,5.776,0,0,0,.285-1.9,6.02,6.02,0,0,0-.2-1.615,3.46,3.46,0,0,0-.6-1.228,2.684,2.684,0,0,0-1-.784,3.347,3.347,0,0,0-1.412-.279,8.143,8.143,0,0,0-1.305.083,4.174,4.174,0,0,0-.736.178Zm36.271,8.237v-.047a.7.7,0,0,0,.036-.178c.008-.079.012-.15.012-.214a3.718,3.718,0,0,0-.1-.813,6.727,6.727,0,0,0-.386-1.11l-1.436-3.229q-.665-.023-1.769-.024h-4.2q-.872,0-1.573.024l-1.365,3.134q-.178.439-.38.961a2.909,2.909,0,0,0-.2,1.056,1.12,1.12,0,0,0,.024.255.459.459,0,0,0,.047.136v.047H75.578v-.047a4.259,4.259,0,0,0,.534-.8q.321-.576.7-1.442l6.8-15.086h.95l6.445,14.5q.225.51.469.991t.457.86q.214.38.38.641c.111.174.186.285.226.332v.047ZM81.6,299.4q.689,0,1.413-.006l1.418-.012,1.336-.012q.641-.006,1.163-.018l-3.335-7.537L80.314,299.4Zm25.044-10.433.51.024q.2.012.416.018c.142,0,.257.006.344.006.15,0,.4-.007.754-.024s.754-.032,1.2-.047l1.406-.047q.73-.024,1.371-.024a12.311,12.311,0,0,1,3.276.427,7.226,7.226,0,0,1,2.73,1.4,6.755,6.755,0,0,1,1.863,2.552,9.711,9.711,0,0,1,.689,3.881,11.209,11.209,0,0,1-.362,2.967,8.314,8.314,0,0,1-1.015,2.326,7.1,7.1,0,0,1-1.561,1.727,8.623,8.623,0,0,1-2.006,1.181,10.636,10.636,0,0,1-2.344.677,15.257,15.257,0,0,1-2.575.213q-.475,0-1.145-.03t-1.347-.065l-1.276-.065q-.6-.03-.932-.03v-.047q.071-.249.136-.617t.113-.914q.047-.546.071-1.3t.024-1.762v-7.727q0-1.008-.024-1.775t-.071-1.317q-.048-.552-.113-.932a6.228,6.228,0,0,0-.136-.629Zm2.6,1.068q-.024,1.329-.047,2.576-.012.534-.018,1.092t-.012,1.1q-.006.54-.012,1.033t-.006.872q0,.8.012,1.923t.03,2.314q.018,1.187.053,2.279t.083,1.816c.111.016.259.034.445.054s.382.036.587.047.407.022.605.029.364.012.5.012a13.351,13.351,0,0,0,1.7-.112,7.4,7.4,0,0,0,1.685-.422,6.2,6.2,0,0,0,1.531-.849,5.193,5.193,0,0,0,1.258-1.395,7.182,7.182,0,0,0,.849-2.059,11.552,11.552,0,0,0,.308-2.843,10.938,10.938,0,0,0-.439-3.234,6.529,6.529,0,0,0-1.288-2.392,5.44,5.44,0,0,0-2.1-1.478,7.664,7.664,0,0,0-2.878-.5q-.321,0-.724.018l-.8.036q-.4.018-.748.047C109.581,290.01,109.389,290.024,109.239,290.032Zm27.5,15.952a5.482,5.482,0,0,0,.131-.617q.059-.367.107-.914t.071-1.3q.024-.754.024-1.762v-7.727q0-1.008-.024-1.763t-.071-1.305q-.048-.552-.107-.92a5.508,5.508,0,0,0-.131-.618v-.047h2.837v.047a6.318,6.318,0,0,0-.136.618q-.066.368-.107.92t-.071,1.305q-.03.754-.029,1.763v7.727q0,1.008.029,1.762t.071,1.3q.042.546.107.914a6.284,6.284,0,0,0,.136.617v.047h-2.837Zm30.753.047v-.047a.7.7,0,0,0,.036-.178c.008-.079.012-.15.012-.214a3.7,3.7,0,0,0-.1-.813,6.723,6.723,0,0,0-.386-1.11l-1.436-3.229q-.665-.023-1.769-.024h-4.2q-.872,0-1.573.024l-1.365,3.134q-.179.439-.38.961a2.909,2.909,0,0,0-.2,1.056,1.143,1.143,0,0,0,.023.255.458.458,0,0,0,.048.136v.047h-2.421v-.047a4.263,4.263,0,0,0,.534-.8q.321-.576.7-1.442l6.8-15.086h.949l6.445,14.5q.226.51.469.991t.457.86q.214.38.38.641a3.968,3.968,0,0,0,.226.332v.047ZM159.8,299.4q.689,0,1.413-.006l1.418-.012,1.336-.012q.641-.006,1.163-.018l-3.335-7.537-3.276,7.584Zm25.708-10.386,12.225,13.009v-8.356q0-1.008-.024-1.763t-.071-1.305q-.047-.552-.112-.92t-.137-.618v-.047H199.5v.047a5.508,5.508,0,0,0-.131.618q-.059.368-.107.92t-.071,1.305q-.024.754-.024,1.763v12.605h-.415l-12.225-13v8.119q0,1.008.023,1.762t.071,1.3q.047.546.107.914a5.489,5.489,0,0,0,.131.617v.047h-2.113v-.047q.071-.249.136-.617t.113-.914q.048-.546.071-1.3t.024-1.762v-7.727q0-1.008-.024-1.763T185,290.6q-.048-.552-.113-.92t-.136-.618v-.047Zm43.7,2.611-.107.048a7.019,7.019,0,0,0-2.225-1.365,8.247,8.247,0,0,0-5.6-.042,6,6,0,0,0-2.142,1.359,6.142,6.142,0,0,0-1.395,2.184,8.146,8.146,0,0,0-.5,2.944,11.667,11.667,0,0,0,.475,3.389,7.842,7.842,0,0,0,1.412,2.724,6.563,6.563,0,0,0,2.344,1.81,7.662,7.662,0,0,0,3.282.659,6.545,6.545,0,0,0,1.353-.142,6.4,6.4,0,0,0,1.3-.422,6.648,6.648,0,0,0,1.175-.676,6.041,6.041,0,0,0,1-.908l.131.083-.949,2.421a10.25,10.25,0,0,1-1.964.528,12.794,12.794,0,0,1-2.166.184,12.145,12.145,0,0,1-4.017-.635,9.231,9.231,0,0,1-3.134-1.8,8.111,8.111,0,0,1-2.041-2.795,8.778,8.778,0,0,1-.73-3.626,8.573,8.573,0,0,1,.291-2.22,8.773,8.773,0,0,1,.849-2.077,8.528,8.528,0,0,1,1.376-1.81,8.839,8.839,0,0,1,1.869-1.43,9.585,9.585,0,0,1,2.314-.944,10.55,10.55,0,0,1,2.736-.338,12.531,12.531,0,0,1,4.249.7ZM247.483,289q1.466-.012,2.688-.029t2.089-.054a9.448,9.448,0,0,0,1.175-.095l-.581,1.578a8.8,8.8,0,0,0-.914-.19q-.452-.071-1.1-.136t-1.489-.065q-.285,0-.683.018t-.766.041l-.866.047V296.6q1.222-.012,2.207-.071t1.674-.119q.807-.071,1.424-.166l-.368,1.721q-.819-.107-1.674-.2-.736-.083-1.6-.148t-1.661-.065v7.442a25.727,25.727,0,0,0,2.575-.118q1.175-.119,2.053-.273a19.012,19.012,0,0,0,1.864-.391l-.344,1.923q-.143-.012-.427-.024l-.635-.023q-.35-.012-.736-.018l-.729-.012-.612-.012c-.178,0-.307-.006-.385-.006h-5.128v-.047q.071-.249.136-.617t.113-.914q.047-.546.071-1.3t.024-1.762v-7.727q0-1.008-.024-1.763t-.071-1.305q-.047-.552-.113-.92t-.136-.618v-.047Q246.017,289.011,247.483,289Z" transform="translate(-50.511 -288.655)" fill="#474849"/><g clip-path="url(#a)"><rect width="207.093" height="41.225" transform="translate(-2.048 -23.105)" fill="#474849"/></g></g><g transform="translate(48.54 34.779)"><path d="M193.965,398.283a1.46,1.46,0,0,0,.113-.215,1.547,1.547,0,0,0,.1-.357c.033-.211.069-.447.11-.711s.083-.538.126-.827.087-.583.131-.885.085-.6.126-.892.079-.575.117-.847.071-.52.1-.746.055-.421.075-.588.033-.292.042-.376h.572l2.834,5.3,2.811-5.3h.427l.739,5.352c.021.168.044.313.068.433s.048.223.072.309a2,2,0,0,0,.07.212,1.252,1.252,0,0,0,.065.137v.018h-1.135v-.018a.76.76,0,0,0,.043-.162,1.483,1.483,0,0,0,.02-.27c0-.039,0-.079,0-.12s-.007-.084-.013-.132L201,393.282l-2.658,5-.311-.036-2.676-5.01q-.157,1.068-.274,1.973c-.033.258-.066.516-.1.772s-.062.5-.088.719-.046.418-.061.588-.022.294-.022.376c0,.1,0,.192.009.27s.012.144.018.2.019.119.027.166h-.9Z" transform="translate(-193.965 -391.705)" fill="#27999a"/><path d="M238.241,391.7c.371,0,.711-.006,1.02-.011s.574-.011.793-.02a3.8,3.8,0,0,0,.445-.036l-.22.6a3.3,3.3,0,0,0-.348-.073q-.171-.026-.417-.051a5.654,5.654,0,0,0-.565-.025c-.072,0-.159,0-.259.007l-.291.015-.329.019v2.459q.464,0,.838-.027t.636-.045c.2-.018.384-.039.54-.063l-.139.654q-.312-.041-.636-.077c-.186-.021-.388-.04-.608-.056s-.43-.025-.631-.025v2.825a9.773,9.773,0,0,0,.978-.045q.446-.045.78-.1c.258-.042.494-.091.707-.148l-.131.73c-.036,0-.09-.006-.162-.01l-.241-.009c-.089,0-.182-.005-.279-.006l-.276,0-.232,0-.146,0h-1.947v-.018a2.323,2.323,0,0,0,.052-.234c.016-.093.031-.209.043-.348s.021-.3.027-.493.009-.413.009-.669v-2.933c0-.255,0-.479-.009-.67s-.015-.356-.027-.5-.027-.255-.043-.349a2.332,2.332,0,0,0-.052-.234V391.7Q237.685,391.7,238.241,391.7Z" transform="translate(-222.519 -391.565)" fill="#27999a"/><path d="M264.94,391.717l.194.009.158.007.13,0c.057,0,.153,0,.286-.009s.286-.012.457-.018l.534-.019c.184-.005.358-.009.521-.009a4.668,4.668,0,0,1,1.243.162,2.731,2.731,0,0,1,1.036.532,2.54,2.54,0,0,1,.708.968,3.689,3.689,0,0,1,.262,1.473,4.259,4.259,0,0,1-.137,1.126,3.156,3.156,0,0,1-.386.883,2.694,2.694,0,0,1-.592.655,3.266,3.266,0,0,1-.761.448,4.042,4.042,0,0,1-.89.257,5.78,5.78,0,0,1-.978.081c-.119,0-.265,0-.435-.011l-.512-.025c-.171-.01-.333-.018-.484-.025s-.27-.012-.354-.012v-.018a2.306,2.306,0,0,0,.052-.234c.016-.093.031-.209.043-.348s.021-.3.027-.493.009-.413.009-.669V393.5c0-.255,0-.48-.009-.674s-.015-.36-.027-.5-.027-.257-.043-.354a2.26,2.26,0,0,0-.052-.239Zm.987.4q-.009.5-.018.978c0,.136-.005.274-.007.415s0,.28,0,.417,0,.267,0,.392,0,.235,0,.331q0,.3,0,.73t.011.879q.007.45.02.865t.032.689c.042.006.1.014.169.021s.144.013.223.018.154.009.23.012.137,0,.189,0a5.064,5.064,0,0,0,.647-.043,2.8,2.8,0,0,0,.639-.159,2.345,2.345,0,0,0,.582-.323,2,2,0,0,0,.477-.529,2.73,2.73,0,0,0,.322-.782,4.383,4.383,0,0,0,.117-1.079,4.122,4.122,0,0,0-.167-1.227,2.454,2.454,0,0,0-.489-.907,2.056,2.056,0,0,0-.8-.561,2.9,2.9,0,0,0-1.093-.192c-.08,0-.173,0-.275.007l-.3.014c-.1,0-.2.01-.284.018S265.984,392.119,265.927,392.122Z" transform="translate(-240.925 -391.599)" fill="#27999a"/><path d="M298.978,398.283a2.136,2.136,0,0,0,.05-.234c.015-.093.028-.209.041-.348s.02-.3.026-.493.009-.413.009-.669v-2.933c0-.255,0-.479-.009-.67s-.015-.356-.026-.5-.026-.255-.041-.348a2.134,2.134,0,0,0-.05-.234v-.019h1.077v.019a2.345,2.345,0,0,0-.051.234c-.017.093-.03.209-.041.348s-.019.305-.026.5-.011.414-.011.67v2.933c0,.255,0,.478.011.669s.016.356.026.493.024.254.041.348a2.347,2.347,0,0,0,.051.234v.018h-1.077Z" transform="translate(-263.445 -391.705)" fill="#27999a"/><path d="M325.228,392.62l-.04.018a2.676,2.676,0,0,0-.845-.518,3.123,3.123,0,0,0-2.124-.016,2.274,2.274,0,0,0-.813.516,2.319,2.319,0,0,0-.53.829,3.093,3.093,0,0,0-.189,1.116,4.418,4.418,0,0,0,.18,1.287,2.983,2.983,0,0,0,.536,1.034,2.5,2.5,0,0,0,.891.687,2.9,2.9,0,0,0,1.245.25,2.453,2.453,0,0,0,.514-.054,2.4,2.4,0,0,0,.494-.159,2.566,2.566,0,0,0,.446-.257,2.32,2.32,0,0,0,.38-.344l.05.031-.361.92a3.932,3.932,0,0,1-.745.2,4.929,4.929,0,0,1-.823.069,4.615,4.615,0,0,1-1.525-.24,3.506,3.506,0,0,1-1.189-.683,3.078,3.078,0,0,1-.775-1.061,3.339,3.339,0,0,1-.277-1.376,3.262,3.262,0,0,1,.11-.842,3.347,3.347,0,0,1,.322-.788,3.243,3.243,0,0,1,.523-.687,3.353,3.353,0,0,1,.71-.543,3.63,3.63,0,0,1,.878-.358,4.039,4.039,0,0,1,1.039-.129,4.755,4.755,0,0,1,1.613.266Z" transform="translate(-277.174 -391.494)" fill="#27999a"/><path d="M356.745,398.037v-.018a.255.255,0,0,0,.013-.068c0-.029,0-.056,0-.081a1.392,1.392,0,0,0-.038-.309,2.607,2.607,0,0,0-.147-.421l-.545-1.226c-.168-.005-.392-.009-.671-.009h-1.593c-.22,0-.42,0-.6.009l-.518,1.189c-.045.112-.093.234-.143.365a1.1,1.1,0,0,0-.077.4.462.462,0,0,0,.009.1.175.175,0,0,0,.019.052v.018h-.92v-.018a1.611,1.611,0,0,0,.2-.3q.121-.218.266-.547l2.581-5.726h.36l2.446,5.505c.057.129.117.255.178.376s.12.23.174.326.1.177.144.243.071.108.086.127v.018Zm-2.919-2.518.536,0,.538,0,.507,0,.442-.007-1.266-2.861-1.243,2.879Z" transform="translate(-298.223 -391.442)" fill="#27999a"/><path d="M387.61,397.9a9.753,9.753,0,0,0,.978-.045q.446-.045.78-.1.387-.063.706-.148l-.13.73c-.036,0-.09-.006-.162-.01l-.241-.009c-.089,0-.182-.005-.279-.006l-.277,0-.232,0-.147,0h-1.947v-.018a2.3,2.3,0,0,0,.052-.234c.016-.093.031-.209.043-.348s.021-.3.027-.493.009-.413.009-.669v-2.933c0-.255,0-.479-.009-.67s-.015-.356-.027-.5-.027-.255-.043-.348a2.3,2.3,0,0,0-.052-.234v-.019h1.082v.019a2.316,2.316,0,0,0-.052.234c-.016.093-.03.209-.04.348s-.02.305-.027.5-.011.414-.011.67Z" transform="translate(-321.458 -391.705)" fill="#27999a"/><path d="M438.612,392.638h-.1a1.41,1.41,0,0,0-.115-.234,1.083,1.083,0,0,0-.518-.436,1.1,1.1,0,0,0-.43-.077,1.076,1.076,0,0,0-.392.067.768.768,0,0,0-.286.19.8.8,0,0,0-.173.288,1.085,1.085,0,0,0-.06.369,1.163,1.163,0,0,0,.183.62,3.546,3.546,0,0,0,.457.583c.183.193.381.384.594.577a7.357,7.357,0,0,1,.6.6,3.429,3.429,0,0,1,.458.651,1.527,1.527,0,0,1,.182.732,1.807,1.807,0,0,1-.1.588,1.512,1.512,0,0,1-.313.53,1.578,1.578,0,0,1-.545.381,1.961,1.961,0,0,1-.793.146,2.418,2.418,0,0,1-.489-.047,3.074,3.074,0,0,1-.428-.117,2.767,2.767,0,0,1-.351-.151,2.534,2.534,0,0,1-.254-.149l.1-.995h.113a1.445,1.445,0,0,0,.439.74,1.329,1.329,0,0,0,.376.234,1.2,1.2,0,0,0,.465.088,1.165,1.165,0,0,0,.412-.069.95.95,0,0,0,.313-.194.844.844,0,0,0,.2-.294.989.989,0,0,0,.069-.374,1.33,1.33,0,0,0-.1-.525,2.109,2.109,0,0,0-.273-.457,3.786,3.786,0,0,0-.383-.419c-.142-.135-.289-.271-.439-.408s-.3-.277-.439-.421a3.347,3.347,0,0,1-.383-.461,2.393,2.393,0,0,1-.272-.527,1.77,1.77,0,0,1-.1-.619,1.455,1.455,0,0,1,.137-.642,1.524,1.524,0,0,1,.365-.489,1.609,1.609,0,0,1,.516-.311,1.681,1.681,0,0,1,.6-.108,2.248,2.248,0,0,1,.414.036,2.751,2.751,0,0,1,.339.085c.1.034.189.067.264.1l.185.081Z" transform="translate(-353.928 -391.476)" fill="#27999a"/><path d="M463.141,391.734l.19.019c.057.005.12.01.192.01s.143,0,.218,0a3.564,3.564,0,0,0,.475-.043,5.471,5.471,0,0,1,.764-.043,2.47,2.47,0,0,1,.8.126,1.841,1.841,0,0,1,.638.37,1.7,1.7,0,0,1,.421.592,2,2,0,0,1,.151.8,2.133,2.133,0,0,1-.239,1.036,2,2,0,0,1-.64.708,2.426,2.426,0,0,1-.923.367,3.278,3.278,0,0,1-1.1.01v.748c0,.255,0,.478.012.669s.017.356.027.493.024.254.04.348a2.316,2.316,0,0,0,.052.234v.018h-1.082v-.018a2.234,2.234,0,0,0,.052-.234c.016-.093.031-.209.043-.348s.021-.3.028-.493.009-.413.009-.669V393.5c0-.255,0-.479-.009-.67s-.015-.356-.028-.5-.026-.255-.043-.349a2.237,2.237,0,0,0-.052-.234Zm.951,3.6a2.277,2.277,0,0,0,.809.016,1.357,1.357,0,0,0,.63-.279,1.39,1.39,0,0,0,.411-.579,2.4,2.4,0,0,0,.146-.892,2.664,2.664,0,0,0-.077-.664,1.49,1.49,0,0,0-.227-.509,1.05,1.05,0,0,0-.38-.325,1.194,1.194,0,0,0-.537-.114c-.129,0-.242.005-.338.015s-.178.022-.243.035a1.424,1.424,0,0,0-.194.049Z" transform="translate(-372.061 -391.599)" fill="#27999a"/><path d="M493.233,398.037v-.018a.256.256,0,0,0,.013-.068c0-.029,0-.056,0-.081a1.4,1.4,0,0,0-.038-.309,2.581,2.581,0,0,0-.147-.421l-.545-1.226c-.168-.005-.392-.009-.671-.009h-1.593c-.22,0-.42,0-.6.009l-.518,1.189c-.045.112-.093.234-.144.365a1.1,1.1,0,0,0-.077.4.467.467,0,0,0,.009.1.185.185,0,0,0,.019.052v.018h-.92v-.018a1.61,1.61,0,0,0,.2-.3q.121-.218.266-.547l2.581-5.726h.36l2.446,5.505c.058.129.117.255.178.376s.12.23.174.326.1.177.144.243.071.108.086.127v.018Zm-2.919-2.518.537,0,.538,0,.507,0,.442-.007-1.266-2.861-1.243,2.879Z" transform="translate(-388.528 -391.442)" fill="#27999a"/><circle cx="0.981" cy="0.981" r="0.981" transform="translate(73.831 2.615)" fill="#b2b1b1"/></g></g></g></g></svg>